<?xml version="1.0" standalone="no"?>
<!DOCTYPE svg PUBLIC "-//W3C//DTD SVG 20010904//EN"
 "http://www.w3.org/TR/2001/REC-SVG-20010904/DTD/svg10.dtd">
<svg version="1.0" xmlns="http://www.w3.org/2000/svg"
 width="261.000000pt" height="258.000000pt" viewBox="0 0 261.000000 258.000000"
 preserveAspectRatio="xMidYMid meet">
<metadata>
Created by potrace 1.16, written by Peter Selinger 2001-2019
</metadata>
<g transform="translate(0.000000,258.000000) scale(0.100000,-0.100000)"
fill="#000000" stroke="none">
<path d="M1110 2553 c-79 -12 -186 -36 -195 -42 -5 -5 -23 -11 -40 -15 -16 -4
-58 -21 -93 -37 -34 -16 -64 -29 -67 -29 -7 0 -154 -94 -200 -129 -68 -51
-151 -133 -204 -201 -27 -36 -59 -76 -69 -90 -30 -38 -118 -209 -132 -255 -7
-22 -16 -45 -21 -50 -7 -10 -40 -155 -60 -265 -18 -100 -10 -245 21 -402 17
-84 35 -157 39 -163 5 -5 14 -28 21 -50 14 -46 102 -217 132 -255 99 -129 126
-161 171 -204 29 -27 68 -59 87 -72 19 -13 57 -40 83 -60 124 -91 314 -169
482 -198 116 -20 360 -21 483 -1 149 24 317 90 447 174 76 49 208 155 240 193
150 177 228 299 265 414 7 21 16 44 21 50 5 6 21 60 36 120 24 98 27 127 27
299 1 167 -2 202 -23 290 -44 186 -117 342 -230 490 -55 71 -194 210 -245 245
-21 14 -50 35 -65 47 -87 69 -318 162 -466 188 -83 14 -374 19 -445 8z m1296
-745 c54 -146 75 -215 89 -293 31 -175 33 -190 28 -197 -7 -12 -2223 -10
-2223 2 0 6 -40 10 -101 10 l-102 0 7 83 c9 109 42 241 88 345 11 26 21 56 22
67 1 20 10 20 1081 25 594 3 1084 2 1089 -2 5 -4 15 -22 22 -40z"/>
<path d="M647 1761 c-120 -77 -123 -260 -5 -338 36 -25 51 -28 119 -28 86 0
108 10 162 78 55 67 50 182 -11 249 -46 51 -85 68 -160 68 -47 0 -67 -6 -105
-29z"/>
<path d="M1765 1773 c-144 -75 -155 -261 -21 -350 106 -72 251 -28 301 89 40
98 -1 210 -97 259 -46 24 -140 25 -183 2z"/>
</g>
</svg>
